<?xml version="1.0" encoding="utf-8"?><svg xmlns="http://www.w3.org/2000/svg" xmlns:xlink="http://www.w3.org/1999/xlink"><symbol viewBox="0 0 25 33.33" id="arrow-down" xmlns="http://www.w3.org/2000/svg"><path fill="none" stroke="currentColor" stroke-miterlimit="10" d="M12.5 30.2V0m11 17-11 13.2L1.55 17"/></symbol><symbol viewBox="0 0 16 16" id="arrow-down-right" xmlns="http://www.w3.org/2000/svg"><path fill="none" stroke="currentColor" stroke-width="2" d="M1.94 14.28h12.22m0 1V2.05m0 12.23L.84.94"/></symbol><symbol viewBox="0 0 33.33 25" id="arrow-left" xmlns="http://www.w3.org/2000/svg"><path fill="none" stroke="currentColor" stroke-miterlimit="10" stroke-width="4" d="M33.33 12.5H3.17m13.16 11-13.16-11L16.33 1.55"/></symbol><symbol viewBox="0 0 33.33 25" id="arrow-right" xmlns="http://www.w3.org/2000/svg"><path fill="none" stroke="currentColor" stroke-miterlimit="10" stroke-width="4" d="M30.16 12.5H0M17 1.55l13.16 11L17 23.45"/></symbol><symbol viewBox="0 0 25 33.33" id="arrow-up" xmlns="http://www.w3.org/2000/svg"><path fill="none" stroke="currentColor" stroke-miterlimit="10" stroke-width="4" d="M12.5 33.33V3.17M1.55 16.33l11-13.16 11 13.16"/></symbol><symbol viewBox="0 0 16 16" id="arrow-up-right" xmlns="http://www.w3.org/2000/svg"><path fill="none" stroke="currentColor" stroke-width="2" d="M14.67 13.67V1.45m1 0H2.44m12.23 0L1.33 14.78"/></symbol><symbol viewBox="0 0 18 20" id="attachment" xmlns="http://www.w3.org/2000/svg"><path d="m15.43 11-1 1-4.81 4.84a4.57 4.57 0 0 1-6.46-6.46l7.75-7.75a2.74 2.74 0 1 1 3.87 3.88l-7.1 7.1a.92.92 0 0 1-1.29 0 .94.94 0 0 1 0-1.3l3.88-3.87.32-.32 1-1a.92.92 0 0 0-1.3-1.29l-1 1-.29.32L5.1 11A2.74 2.74 0 0 0 9 14.9l7.1-7.1a4.57 4.57 0 0 0-6.48-6.46L8.33 2.63 1.87 9.09a6.39 6.39 0 0 0 9 9l4.85-4.85 1-1a.92.92 0 0 0 0-1.3.91.91 0 0 0-1.29.06z"/></symbol><symbol viewBox="0 0 32 19.28" id="chevron-down" xmlns="http://www.w3.org/2000/svg"><path fill="none" stroke="currentColor" stroke-miterlimit="10" stroke-width="4" d="m1.5 1.4 14.63 15 14.37-15"/></symbol><symbol viewBox="0 0 19.28 32" id="chevron-left" xmlns="http://www.w3.org/2000/svg"><path fill="none" stroke="currentColor" stroke-miterlimit="10" stroke-width="4" d="m17.88 1.5-15 14.37 15 14.63"/></symbol><symbol viewBox="0 0 19.28 32" id="chevron-right" xmlns="http://www.w3.org/2000/svg"><path fill="none" stroke="currentColor" stroke-miterlimit="10" stroke-width="4" d="m1.4 30.5 15-14.63L1.4 1.5"/></symbol><symbol viewBox="0 0 32 19.28" id="chevron-up" xmlns="http://www.w3.org/2000/svg"><path fill="none" stroke="currentColor" stroke-miterlimit="10" stroke-width="4" d="m30.5 17.88-14.37-15-14.63 15"/></symbol><symbol viewBox="0 0 32 32" id="dribbble" xmlns="http://www.w3.org/2000/svg"><path fill="currentColor" d="M16 0a16 16 0 1 0 16 16A16 16 0 0 0 16 0zm10.43 7.55a13.38 13.38 0 0 1 3 8 22.6 22.6 0 0 0-9-.09c-.48-1.12-1-2.2-1.48-3.21a26.68 26.68 0 0 0 7.48-4.7zm-1.81-1.84A23.78 23.78 0 0 1 17.75 10a62.59 62.59 0 0 0-4.55-7.14 13.57 13.57 0 0 1 2.8-.29 13.35 13.35 0 0 1 8.62 3.14zm-14-2a60.23 60.23 0 0 1 4.68 7.22 42.76 42.76 0 0 1-12.36 1.94 13.5 13.5 0 0 1 7.67-9.17zm-8 11.75h.08a46.59 46.59 0 0 0 8.14-.75 39.89 39.89 0 0 0 5.7-1.47c.47.92.93 1.9 1.38 2.93a24 24 0 0 0-6.28 3.11 28.44 28.44 0 0 0-5.84 5.4A13.35 13.35 0 0 1 2.57 16l.01-.55zm5 11a25.86 25.86 0 0 1 5.52-5.13 21.88 21.88 0 0 1 5.72-2.82 49.37 49.37 0 0 1 2.7 9.7A13.21 13.21 0 0 1 16 29.43a13.35 13.35 0 0 1-8.39-2.96zm16.31.37a53.48 53.48 0 0 0-2.53-8.92 20.31 20.31 0 0 1 7.86.26 13.46 13.46 0 0 1-5.34 8.67z"/></symbol><symbol viewBox="0 0 30 30" id="help" xmlns="http://www.w3.org/2000/svg"><path d="M15.15 29.31a14.16 14.16 0 1 1 14.16-14.16 14.17 14.17 0 0 1-14.16 14.16Zm0-27.53a13.38 13.38 0 1 0 13.38 13.37A13.39 13.39 0 0 0 15.15 1.78Zm-1 15.32h1v-.7c0-.57.63-1.06 1.24-1.66a3.52 3.52 0 0 0 1.26-2.52A2.58 2.58 0 0 0 15 9.6a3.32 3.32 0 0 0-2.69 1.3l.85.8a2.15 2.15 0 0 1 1.75-1 1.48 1.48 0 0 1 1.57 1.54 3 3 0 0 1-1 2c-.62.66-1.28 1.25-1.26 2.12Zm.53 3a.83.83 0 0 0 .83-.83.82.82 0 0 0-.83-.82.83.83 0 0 0-.84.82.84.84 0 0 0 .89.83Z"/></symbol><symbol viewBox="0 0 32 32" id="instagram" xmlns="http://www.w3.org/2000/svg"><path fill="currentColor" d="M3 10v12a7.07 7.07 0 0 0 7 7h12a7.07 7.07 0 0 0 7-7V10a7.07 7.07 0 0 0-7-7H10a7.07 7.07 0 0 0-7 7zm-3 0A9.81 9.81 0 0 1 10 0h12a9.81 9.81 0 0 1 10 10v12a9.81 9.81 0 0 1-10 10H10A9.81 9.81 0 0 1 0 22zm16 10.71A4.71 4.71 0 1 0 11.29 16 4.66 4.66 0 0 0 16 20.71zm0 2.82A7.53 7.53 0 1 1 23.53 16 7.55 7.55 0 0 1 16 23.53zm9.41-15.06a1.88 1.88 0 0 1-3.76 0 1.88 1.88 0 1 1 3.76 0z"/></symbol><symbol viewBox="0 0 12 32" id="long-arrow-down" xmlns="http://www.w3.org/2000/svg"><path fill="none" stroke="currentColor" stroke-miterlimit="10" d="M11.67 26.28 6 31.33l-5.67-5M6 0v31.32"/></symbol><symbol viewBox="0 0 32 12" id="long-arrow-left" xmlns="http://www.w3.org/2000/svg"><path fill="none" stroke="currentColor" stroke-miterlimit="10" d="M5.67 11.67.67 6 5.72.33M.68 6H32"/></symbol><symbol viewBox="0 0 32 12" id="long-arrow-right" xmlns="http://www.w3.org/2000/svg"><path fill="none" stroke="currentColor" stroke-miterlimit="10" d="m26.28.33 5 5.67-5 5.67M0 6h31.32"/></symbol><symbol viewBox="0 0 12 32" id="long-arrow-up" xmlns="http://www.w3.org/2000/svg"><path fill="none" stroke="currentColor" stroke-miterlimit="10" d="M.33 5.67 6 .67l5.67 5.05M6 .68V32"/></symbol><symbol viewBox="0 0 19 22" id="play" xmlns="http://www.w3.org/2000/svg"><path fill="none" stroke="currentColor" stroke-width="2" d="M1 17.84V4.16c0-1.85 2-3 3.6-2.07l11.81 6.83a2.4 2.4 0 0 1 0 4.16L4.61 19.9A2.4 2.4 0 0 1 1 17.84Z"/></symbol><symbol viewBox="0 0 32 32" id="times" xmlns="http://www.w3.org/2000/svg"><path fill="none" stroke="currentColor" stroke-miterlimit="10" stroke-width="4" d="m1.5 1.5 29 29M1.5 30.5l29-29"/></symbol></svg>